<?xml version="1.0" encoding="UTF-8"?>
<svg id="Laag_1" xmlns="http://www.w3.org/2000/svg" version="1.1" viewBox="0 0 841.9 282.3">
  <!-- Generator: Adobe Illustrator 29.1.0, SVG Export Plug-In . SVG Version: 2.1.0 Build 142)  -->
  <defs>
    <style>
      .st0 {
        fill: #009ed4;
      }

      .st1 {
        fill: #0069b4;
      }

      .st2 {
        fill: #00964f;
      }

      .st3 {
        fill: #74b959;
      }
    </style>
  </defs>
  <g>
    <path class="st3" d="M390.4,44c-.8-3.4-2.2-5.8-4.3-7.3-2.1-1.4-4.9-2.2-8.2-2.2s-4.5.5-6.2,1.4c-1.7,1-3.2,2.3-4.3,3.9-1.1,1.6-2,3.5-2.5,5.6-.5,2.1-.8,4.4-.8,6.7s.2,4.4.7,6.5c.5,2.1,1.2,4.1,2.3,5.7,1.1,1.7,2.5,3,4.3,4.1,1.8,1,4.1,1.5,6.8,1.5s3.2-.3,4.6-.8c1.4-.6,2.6-1.3,3.7-2.3,1.1-1,1.9-2.1,2.7-3.5s1.3-2.8,1.6-4.4h3.9c-.4,1.9-1.1,3.7-1.9,5.5-.8,1.7-2,3.2-3.3,4.5-1.4,1.3-3.1,2.3-5,3.1-2,.8-4.3,1.1-6.9,1.1s-5.7-.6-7.9-1.7c-2.2-1.1-4-2.6-5.3-4.6-1.4-1.9-2.4-4.1-3-6.7-.6-2.5-.9-5.2-.9-8.1s.5-7,1.4-9.7c.9-2.7,2.2-4.8,3.9-6.5,1.7-1.7,3.6-2.9,5.9-3.7,2.3-.8,4.7-1.1,7.4-1.1s3.9.3,5.7.8c1.8.5,3.3,1.3,4.7,2.4,1.3,1.1,2.5,2.4,3.3,4,.9,1.6,1.5,3.4,1.8,5.5h-3.9Z"/>
    <path class="st3" d="M414.3,55.6c.6,0,1.4-.2,2.2-.3.9-.1,1.6-.4,2.1-.6.6-.3.9-.7,1-1.3.1-.6.2-1.2.2-1.7,0-1.7-.5-3.1-1.6-4.2-1.1-1.1-2.9-1.6-5.5-1.6s-2.2.1-3.2.3c-1,.2-1.8.6-2.5,1.1-.7.5-1.3,1.2-1.8,2-.5.8-.8,1.9-.9,3.1h-3.4c.1-1.7.5-3.1,1.2-4.3.7-1.2,1.5-2.2,2.6-2.9,1.1-.8,2.3-1.3,3.7-1.7,1.4-.4,2.9-.5,4.4-.5s2.8.2,4.1.5c1.3.3,2.4.8,3.3,1.5.9.7,1.7,1.6,2.2,2.7.5,1.1.8,2.5.8,4.2v15.6c0,1.3.2,2.1.7,2.5.5.4,1.4.3,2.8-.2v2.6c-.3,0-.6.2-1.1.3-.5.1-1,.2-1.5.2s-1,0-1.5-.2c-.6,0-1-.2-1.3-.5s-.6-.6-.8-1c-.2-.4-.3-.8-.4-1.3,0-.5-.1-.9-.1-1.5-1.4,1.5-3,2.7-4.8,3.5-1.8.8-3.8,1.2-5.9,1.2s-2.5-.2-3.6-.5-2.2-.8-3.1-1.6c-.9-.7-1.6-1.6-2.1-2.6-.5-1-.8-2.2-.8-3.6,0-4.9,3.3-7.8,10-8.6l4.6-.6ZM419.9,57.3c-1.4.6-2.8,1-4.3,1.2-1.4.2-2.9.3-4.3.4-2.5.2-4.5.8-6,1.7-1.4,1-2.1,2.4-2.1,4.4s.2,1.7.5,2.3c.4.6.8,1.2,1.4,1.6.6.4,1.2.7,2,.9.8.2,1.5.3,2.3.3,1.3,0,2.6-.2,3.9-.5,1.3-.3,2.4-.8,3.3-1.5,1-.7,1.8-1.6,2.4-2.6.6-1.1.9-2.3.9-3.7v-4.5Z"/>
    <path class="st3" d="M434.8,72.3h-3.3v-28.7h3.3v5.4h.1c.9-2.3,2.1-3.9,3.6-4.8,1.5-.9,3.4-1.4,5.8-1.4v3.6c-1.9,0-3.4.3-4.7.9-1.2.6-2.2,1.5-2.9,2.5-.7,1.1-1.2,2.3-1.5,3.8-.3,1.5-.4,3-.4,4.6v14.1Z"/>
    <path class="st3" d="M451.3,58.8c0,1.6.2,3,.6,4.4.4,1.4,1,2.6,1.8,3.6.8,1,1.8,1.8,3,2.4s2.6.9,4.2.9,4-.6,5.6-1.7c1.5-1.1,2.6-2.8,3.1-4.9h3.7c-.4,1.4-.9,2.6-1.6,3.8-.7,1.2-1.5,2.2-2.5,3-1,.9-2.2,1.5-3.5,2-1.4.5-3,.7-4.8.7s-4.3-.4-5.9-1.2c-1.7-.8-3-1.8-4.1-3.2-1.1-1.3-1.9-2.9-2.4-4.8-.5-1.8-.8-3.8-.8-5.9s.3-4.1.9-5.9c.6-1.8,1.5-3.5,2.6-4.8,1.1-1.4,2.5-2.5,4.1-3.3,1.6-.8,3.5-1.2,5.5-1.2,3.9,0,7,1.4,9.3,4.1,2.3,2.7,3.4,6.7,3.3,11.8h-22.3ZM470,56c0-1.4-.2-2.7-.6-4-.4-1.2-1-2.3-1.7-3.2-.8-.9-1.7-1.6-2.9-2.2-1.1-.5-2.5-.8-3.9-.8s-2.8.3-3.9.8c-1.1.6-2.1,1.3-2.9,2.2-.8.9-1.4,2-1.9,3.2-.5,1.2-.8,2.5-.9,3.9h18.7Z"/>
    <path class="st3" d="M491.4,46.4v-2.8h4.3v-4.5c0-2.3.5-4.1,1.4-5.4.9-1.3,2.5-2,4.7-2s1,0,1.4,0c.4,0,.9,0,1.3.2v3c-.7-.2-1.4-.3-2-.3-.8,0-1.5.2-2,.5-.5.3-.8.7-1.1,1.2-.2.5-.4,1.1-.4,1.7,0,.6,0,1.3,0,2v3.5h5.5v2.8h-5.5v25.9h-3.3v-25.9h-4.3Z"/>
    <path class="st3" d="M520.5,73.1c-1.8,0-3.6-.4-5.2-1-1.6-.6-3-1.6-4.2-2.8-1.2-1.3-2.2-2.8-2.9-4.7s-1.1-4.1-1.1-6.6.3-4.1.8-5.9c.6-1.8,1.4-3.4,2.5-4.8,1.1-1.4,2.5-2.4,4.2-3.2,1.7-.8,3.6-1.2,5.8-1.2s4.2.4,5.9,1.2c1.7.8,3,1.9,4.2,3.2,1.1,1.3,1.9,2.9,2.5,4.8.5,1.8.8,3.8.8,5.9s-.3,4.4-.9,6.2c-.6,1.8-1.5,3.4-2.7,4.8-1.2,1.3-2.6,2.4-4.2,3.1-1.6.7-3.5,1.1-5.5,1.1ZM530.3,58c0-1.7-.2-3.3-.6-4.8-.4-1.5-.9-2.8-1.7-3.8-.8-1.1-1.8-1.9-3-2.6-1.2-.6-2.7-.9-4.5-.9s-3.2.3-4.5,1c-1.2.7-2.2,1.6-3,2.7-.8,1.1-1.3,2.4-1.7,3.9s-.6,3-.6,4.5.2,3.4.6,4.9c.4,1.5,1,2.8,1.9,3.8.8,1.1,1.8,1.9,3,2.5,1.2.6,2.6.9,4.2.9s3.2-.3,4.5-1c1.2-.7,2.2-1.6,3-2.7.8-1.1,1.3-2.4,1.7-3.9.4-1.4.6-2.9.6-4.5Z"/>
    <path class="st3" d="M542.9,72.3h-3.3v-28.7h3.3v5.4h.1c.9-2.3,2.1-3.9,3.6-4.8,1.5-.9,3.4-1.4,5.8-1.4v3.6c-1.9,0-3.4.3-4.7.9-1.2.6-2.2,1.5-2.9,2.5-.7,1.1-1.2,2.3-1.5,3.8-.3,1.5-.4,3-.4,4.6v14.1Z"/>
    <path class="st3" d="M582.2,72.4c-.4,0-.9.2-1.6.4-.7.2-1.4.3-2.2.3-1.7,0-2.9-.4-3.8-1.2-.9-.8-1.3-2.3-1.3-4.5v-21h-4v-2.8h4v-8h3.3v8h5.4v2.8h-5.4v19.7c0,.7,0,1.3,0,1.8,0,.5.1.9.3,1.3.2.3.5.6.9.7.4.1.9.2,1.6.2s.9,0,1.4-.1c.5,0,.9-.2,1.4-.3v2.7Z"/>
    <path class="st3" d="M598.4,73.1c-1.8,0-3.6-.4-5.2-1-1.6-.6-3-1.6-4.2-2.8-1.2-1.3-2.2-2.8-2.9-4.7-.7-1.9-1.1-4.1-1.1-6.6s.3-4.1.8-5.9c.6-1.8,1.4-3.4,2.5-4.8,1.1-1.4,2.5-2.4,4.2-3.2,1.7-.8,3.6-1.2,5.8-1.2s4.2.4,5.9,1.2c1.7.8,3,1.9,4.2,3.2,1.1,1.3,1.9,2.9,2.5,4.8.5,1.8.8,3.8.8,5.9s-.3,4.4-.9,6.2c-.6,1.8-1.5,3.4-2.7,4.8-1.2,1.3-2.6,2.4-4.2,3.1-1.6.7-3.5,1.1-5.5,1.1ZM608.1,58c0-1.7-.2-3.3-.6-4.8-.4-1.5-.9-2.8-1.7-3.8-.8-1.1-1.8-1.9-3-2.6-1.2-.6-2.7-.9-4.5-.9s-3.2.3-4.5,1c-1.2.7-2.2,1.6-3,2.7-.8,1.1-1.3,2.4-1.7,3.9s-.6,3-.6,4.5.2,3.4.6,4.9c.4,1.5,1,2.8,1.9,3.8.8,1.1,1.8,1.9,3,2.5,1.2.6,2.6.9,4.2.9s3.2-.3,4.5-1c1.2-.7,2.2-1.6,3-2.7.8-1.1,1.3-2.4,1.7-3.9.4-1.4.6-2.9.6-4.5Z"/>
    <path class="st3" d="M620.1,72.3h-3.3v-28.7h3.3v4.3h.1c.8-1.7,2.1-2.9,3.7-3.8,1.6-.9,3.3-1.3,5.2-1.3s2.5.1,3.4.4c.9.3,1.7.7,2.4,1.2.6.5,1.2,1.1,1.6,1.7.4.7.8,1.4,1.1,2.2,1-1.9,2.2-3.3,3.8-4.2,1.6-.9,3.4-1.4,5.5-1.4s3.5.3,4.7,1c1.2.6,2.1,1.5,2.7,2.5.6,1.1,1,2.3,1.2,3.6.2,1.4.3,2.8.3,4.2v18.1h-3.3v-19.8c0-2.1-.4-3.7-1.3-4.9-.9-1.2-2.5-1.8-4.8-1.8s-2.4.3-3.5.8c-1.1.5-2.1,1.4-3,2.5-.4.5-.7,1-.9,1.7-.2.6-.4,1.3-.6,2-.1.7-.2,1.4-.3,2.1,0,.7,0,1.3,0,1.9v15.4h-3.3v-19.8c0-2.1-.4-3.7-1.3-4.9-.9-1.2-2.5-1.8-4.8-1.8s-2.4.3-3.5.8c-1.1.5-2.1,1.4-3,2.5-.4.5-.7,1-.9,1.7-.2.6-.4,1.3-.6,2-.1.7-.2,1.4-.3,2.1,0,.7,0,1.3,0,1.9v15.4Z"/>
    <path class="st3" d="M674.2,73.1c-1.8,0-3.6-.4-5.2-1-1.6-.6-3-1.6-4.2-2.8-1.2-1.3-2.2-2.8-2.9-4.7s-1.1-4.1-1.1-6.6.3-4.1.8-5.9c.6-1.8,1.4-3.4,2.5-4.8,1.1-1.4,2.5-2.4,4.2-3.2,1.7-.8,3.6-1.2,5.8-1.2s4.2.4,5.9,1.2c1.7.8,3,1.9,4.2,3.2,1.1,1.3,1.9,2.9,2.5,4.8.5,1.8.8,3.8.8,5.9s-.3,4.4-.9,6.2c-.6,1.8-1.5,3.4-2.7,4.8-1.2,1.3-2.6,2.4-4.2,3.1-1.6.7-3.5,1.1-5.5,1.1ZM683.9,58c0-1.7-.2-3.3-.6-4.8-.4-1.5-.9-2.8-1.7-3.8-.8-1.1-1.8-1.9-3-2.6-1.2-.6-2.7-.9-4.5-.9s-3.2.3-4.5,1c-1.2.7-2.2,1.6-3,2.7-.8,1.1-1.3,2.4-1.7,3.9s-.6,3-.6,4.5.2,3.4.6,4.9c.4,1.5,1,2.8,1.9,3.8.8,1.1,1.8,1.9,3,2.5,1.2.6,2.6.9,4.2.9s3.2-.3,4.5-1c1.2-.7,2.2-1.6,3-2.7.8-1.1,1.3-2.4,1.7-3.9.4-1.4.6-2.9.6-4.5Z"/>
    <path class="st3" d="M696.5,72.3h-3.3v-28.7h3.3v5.4h.1c.9-2.3,2.1-3.9,3.6-4.8,1.5-.9,3.4-1.4,5.8-1.4v3.6c-1.9,0-3.4.3-4.7.9-1.2.6-2.2,1.5-2.9,2.5-.7,1.1-1.2,2.3-1.5,3.8-.3,1.5-.4,3-.4,4.6v14.1Z"/>
    <path class="st3" d="M714.4,72.3h-3.3v-28.7h3.3v5.4h.1c.9-2.3,2.1-3.9,3.6-4.8,1.5-.9,3.4-1.4,5.8-1.4v3.6c-1.9,0-3.4.3-4.7.9-1.2.6-2.2,1.5-2.9,2.5-.7,1.1-1.2,2.3-1.5,3.8-.3,1.5-.4,3-.4,4.6v14.1Z"/>
    <path class="st3" d="M740.3,73.1c-1.8,0-3.6-.4-5.2-1-1.6-.6-3-1.6-4.2-2.8-1.2-1.3-2.2-2.8-2.9-4.7s-1.1-4.1-1.1-6.6.3-4.1.8-5.9c.6-1.8,1.4-3.4,2.5-4.8,1.1-1.4,2.5-2.4,4.2-3.2,1.7-.8,3.6-1.2,5.8-1.2s4.2.4,5.9,1.2c1.7.8,3,1.9,4.2,3.2,1.1,1.3,1.9,2.9,2.5,4.8.5,1.8.8,3.8.8,5.9s-.3,4.4-.9,6.2c-.6,1.8-1.5,3.4-2.7,4.8-1.2,1.3-2.6,2.4-4.2,3.1-1.6.7-3.5,1.1-5.5,1.1ZM750,58c0-1.7-.2-3.3-.6-4.8-.4-1.5-.9-2.8-1.7-3.8-.8-1.1-1.8-1.9-3-2.6-1.2-.6-2.7-.9-4.5-.9s-3.2.3-4.5,1c-1.2.7-2.2,1.6-3,2.7-.8,1.1-1.3,2.4-1.7,3.9s-.6,3-.6,4.5.2,3.4.6,4.9c.4,1.5,1,2.8,1.9,3.8.8,1.1,1.8,1.9,3,2.5,1.2.6,2.6.9,4.2.9s3.2-.3,4.5-1c1.2-.7,2.2-1.6,3-2.7.8-1.1,1.3-2.4,1.7-3.9.4-1.4.6-2.9.6-4.5Z"/>
    <path class="st3" d="M783.3,67.9l7.5-24.2h3.4l-9.3,28.7h-3.5l-6.3-24.1h-.1l-6.4,24.1h-4l-8.7-28.7h3.3l7.4,24.5,6.6-24.5h3.7l6.3,24.2Z"/>
  </g>
  <g>
    <path class="st1" d="M501.8,247h8.4c11.8,0,17-4.9,17-17.2s-5.1-17.2-17-17.2h-8.4v34.5ZM497.9,209.2h14.3c12.5.3,18.9,7,18.9,20.6s-6.5,20.3-18.9,20.6h-14.3v-41.2Z"/>
    <path class="st1" d="M556.3,234.1h-.1c-.5.9-2.1,1.2-3.1,1.3-6.2,1.1-13.8,1.1-13.8,6.9s3.2,5.9,6.6,5.9c5.6,0,10.4-3.5,10.4-9.3v-4.7ZM536.9,229.7c.4-7,5.2-10,12.1-10s11,1.6,11,9.6v15.8c0,1.4.7,2.2,2.1,2.2s.7,0,1.2-.2v3.1c-.9.2-1.4.2-2.4.2-3.7,0-4.3-2.1-4.3-5.2h-.1c-2.6,3.9-5.1,6.1-10.8,6.1s-10-2.7-10-8.7,8.1-8.7,16-9.6c3-.3,4.7-.8,4.7-4,0-4.9-3.5-6.1-7.8-6.1s-7.8,2.1-8,6.9h-3.6Z"/>
  </g>
  <path class="st1" d="M567.9,250.4h3.6v-29.8h-3.6v29.8ZM567.9,215h3.6v-5.8h-3.6v5.8Z"/>
  <path class="st1" d="M594.5,220.6h3.9l9.8,25.4,9.2-25.4h3.6l-12.9,34.3c-2.1,5-3.3,6.5-7.8,6.5-1.4,0-2.1,0-2.8-.3v-3.1c.9.2,1.6.3,2.5.3,3.2,0,4-1.9,5.2-4.7l1.3-3.4-11.9-29.7Z"/>
  <polygon class="st1" points="640.5 209.2 666.6 209.2 666.6 212.5 644.4 212.5 644.4 227.4 664.1 227.4 664.1 230.8 644.4 230.8 644.4 250.4 640.5 250.4 640.5 209.2"/>
  <g>
    <path class="st1" d="M673.5,235.5c0,6.3,3.5,12.7,10.4,12.7s10.4-6.4,10.4-12.7-3.5-12.7-10.4-12.7-10.4,6.4-10.4,12.7M698,235.5c0,8.5-5,15.8-14.1,15.8s-14.1-7.2-14.1-15.8,5-15.7,14.1-15.7,14.1,7.2,14.1,15.7"/>
    <path class="st1" d="M706.1,235.5c0,6.3,3.5,12.7,10.4,12.7s10.4-6.4,10.4-12.7-3.5-12.7-10.4-12.7-10.4,6.4-10.4,12.7M730.6,235.5c0,8.5-5,15.8-14.1,15.8s-14.1-7.2-14.1-15.8,5-15.7,14.1-15.7,14.1,7.2,14.1,15.7"/>
    <path class="st1" d="M748.8,248.2c7.7,0,10.4-6.5,10.4-12.7s-2.8-12.7-10.4-12.7-9.7,6.5-9.7,12.7,2.8,12.7,9.7,12.7M762.8,250.4h-3.3v-5.7h-.1c-1.6,3.9-6.3,6.5-10.6,6.5-9.1,0-13.4-7.3-13.4-15.8s4.3-15.7,13.4-15.7,8.8,2.3,10.3,6.5h.1v-17.1h3.6v41.2Z"/>
    <path class="st1" d="M788.2,229.3c-.2-4.5-3.6-6.5-7.8-6.5s-7,1.3-7,5.1,3.6,4.4,6.2,5l4.8,1.1c4.2.6,8.5,3.1,8.5,8.2s-6.4,8.9-11.9,8.9-11.6-3.2-12.2-10.5h3.6c.3,4.9,3.9,7.4,8.8,7.4s8.1-1.5,8.1-5.7-3.2-4.6-6.5-5.4l-4.7-1c-4.7-1.2-8.3-2.9-8.3-8s5.9-8.4,11.2-8.4,10.6,3.1,10.9,9.6h-3.6Z"/>
    <path class="st1" d="M590.8,146.4h0c0-.4,0-1.5-.3-2.7-1.2-5.2-5.8-8.3-10.9-8.3s-9.6,3.1-11.5,8.1c-.2.5-.3,1-.4,1.4-.2.7.4,1.5,1.1,1.5h22ZM567.4,158.2h0c0,2.7.8,4.8,2.3,7.1,3.3,5.2,8.4,5.6,10.6,5.6,6.1,0,8.6-3.3,10.2-5.4h17s0,0,0,0c-6.3,17.5-21.7,18.8-28,18.8-5.2-.2-9-1.2-10.9-1.9-12.1-4.4-18.2-16-18.2-28.5s.4-12.9,6.5-21c3.1-4,10-10.6,22.8-10.6s6.7.2,11.9,2.3c5.7,2.5,13,8.3,15.7,22.1,0,0,0,0,0,0,.2,1.6,1,5.2,1,9.4s0,.5,0,.8c0,.6-.6,1.1-1.2,1.1h-39.7Z"/>
    <path class="st1" d="M500.7,153.6h0c0,7.3,2.1,11.2,4.4,13.7,2.1,2.5,4.6,3.5,7.9,3.5s5.6-1.2,6.5-1.9c3.5-2.5,5.8-7.1,5.8-15.8s.4-9.6-4.8-14c-1.2-1-3.4-2.5-7.1-2.5-6.1.2-12.7,4.4-12.7,17.1M541.7,102.7h0v79.6h-16.5c0-.1,0-1.6,0-3.3,0-1.4-1-1.2-1.5-.5-.6.8-1.3,1.4-1.9,1.9-4.4,3.8-10.9,3.8-12.5,3.8s-6.3,0-10.7-2.1c-6.5-3.3-14.8-11.3-14.8-28.1s.2-7.5,2.1-13.1c3.6-10.8,12.1-18.1,23.8-18.1s10.4,2.3,12.6,3.8c1.2.9,2.2,1.7,2.2-.6v-12.9s0-.9,0-.9c0-3.5,1.8-9.5,10.7-9.5h6.3Z"/>
    <path class="st1" d="M286.5,123h-7.3c-17.6,0-27.5,10.9-27.5,29.7v30.3s0,0,0,0h11.1c3.8,0,5.8-2.4,5.7-5.4v-24.5c0-11.3,4.3-15,12.1-15,0,0,3.5,0,3.5,0l2.4-15s0,0,0,0"/>
    <path class="st1" d="M252.7,103.7h-16.7s0,0,0,0l-2.8,10c0,.2,0,.4,0,.4l-.4,1.4-1.3,4.7-7.1,25v.4c-.1,0-4.6,15.9-4.6,15.9,0,0,0,0,0,0l-2.1-7.4-14.1-50.3s0,0,0,0h-17.8c-.8,0-1.4.8-1.1,1.6l19.8,59.3,3.7,11.2c1.4,4.6,4.3,8.6,11.3,8.6s9.8-4,11.3-8.6l1.2-3.6,22.5-66.8c.3-.8-.3-1.6-1.1-1.6h-.5Z"/>
    <path class="st1" d="M715.3,121.2c-6.7,0-13.1,2.9-16.3,7.1v-.9s0-14.6,0-14.6c0,0,0-.1,0-.4h0s0-.9,0-.9c0-1.2-.2-2.7-.9-4.2-1.2-2.7-4-5.1-9.7-5.1h-6.2,0s0,0,0,0v80.7s0,0,0,0h17s0,0,0,0v-34.4c0-7.8,4.2-12.6,11.1-12.6s9,5.5,9,10.6v36.4s0,0,0,0h17s0,0,0,0v-41.3c0-12.4-8.3-20.5-21-20.5"/>
    <path class="st1" d="M792.8,103.5h-6.2c-5.7,0-8.4,2.4-9.7,5.1h0c-.7,1.5-.9,3-.9,4.2,0,0,0,.9,0,.9h0c0,.2,0,.3,0,.3v69s0,0,0,0h0s0,0,0,0h6.2c5.7,0,8.4-2.4,9.7-5.1,0,0,0,0,0,0,.7-1.4.9-3,.9-4.2,0,0,0-.9,0-.9h0c0-.2,0-.3,0-.3v-69s0,0,0,0h0Z"/>
    <path class="st1" d="M756.1,118c5.4,0,9.8-4,9.8-9s-4.4-9-9.8-9-9.6,3.8-9.6,9,4.4,9,9.6,9"/>
  </g>
  <polygon class="st1" points="764.6 126.3 747.9 126.3 747.9 128.3 747.9 179.8 747.9 183 764.6 183 764.6 180.9 764.6 129.5 764.6 126.3"/>
  <g>
    <path class="st1" d="M446.2,168.6c-8.2,0-11.2-7.9-11.2-15.4,0-10.6,4.1-16.9,11.1-16.9s12.2,4.3,12.2,16.3-6.6,16-12.1,16M475.2,179v-56.3h-16.4v5.5c0,.3-.4.5-.6.2-3.6-4.8-8.9-7.2-15.7-7.2s-13,2.8-17.5,7.8c-4.9,5.5-7.5,13.6-7.5,23.2,0,19.2,9.9,31.1,25.8,31.1s11-2.5,13.6-5.5c.4-.5,1.1-.2,1.1.5v2.6c0,8.8-1.9,14-11.2,14.3-5.4.2-11.7-1.3-15.7-2.6l-5.2,13.3c5.3,2.1,12.2,3.8,19.7,3.8,30.1,0,29.4-21.6,29.4-30.6"/>
    <path class="st1" d="M408.8,122.7h-6.3c-3.5,0-5.9.9-7.5,2.3-1,.8-1.8,1.9-2.3,2.9h0c-.7,1.5-.9,3-.9,4.2,0,0,0,.9,0,.9h0c0,.2,0,.4,0,.4v14.8h0s0,8.3,0,8.3v.6h0c0,0,0,.3,0,.3,0,11.5-8.3,12.4-10.9,12.4-6.1,0-9-3.1-9-9.9v-37.2s0,0,0,0h-17s0,0,0,0v39.4c0,14.3,7.5,22.5,20.6,22.5s12.5-2.5,16.4-7.2c.2-.2.4-.5.6-.7v6.4s0,0,0,0h16.3s0,0,0,0v-60.3h0s0,0,0,0Z"/>
    <path class="st1" d="M650.2,121.2c-6.8,0-12.5,2.5-16.4,7.2,0,0,0,0,0,0-.2.2-.4.5-.6.7v-6.4s0,0,0,0h-16.3s0,0,0,0v60.3h0s0,0,0,0h6.3c3.4,0,5.8-.9,7.4-2.2,1.1-.9,1.8-1.9,2.3-3h0c.7-1.5.9-3,.9-4.2,0,0,0-.9,0-.9v-24.4c0-11.5,8.4-12.4,10.9-12.4,6.1,0,9,3.1,9,9.9v37.2s0,0,0,0h17s0,0,0,0v-39.4c0-14.3-7.5-22.5-20.6-22.5"/>
    <path class="st1" d="M329,146.4h0c0-.4,0-1.5-.3-2.7-1.2-5.2-5.8-8.3-10.9-8.3s-9.6,3.1-11.5,8.1c-.2.5-.3,1-.4,1.4-.2.7.4,1.5,1.1,1.5h22ZM305.6,158.2h0c0,2.7.8,4.8,2.3,7.1,3.3,5.2,8.4,5.6,10.6,5.6,6.1,0,8.6-3.3,10.2-5.4h17s0,0,0,0c-6.3,17.5-21.7,18.8-28,18.8-5.2-.2-9-1.2-10.9-1.9-12.1-4.4-18.2-16-18.2-28.5s.4-12.9,6.5-21c3.1-4,10-10.6,22.8-10.6s6.7.2,11.9,2.3c5.7,2.5,13,8.3,15.7,22.1,0,0,0,0,0,0,.2,1.6,1,5.2,1,9.4s0,.5,0,.8c0,.6-.6,1.1-1.2,1.1h-39.7Z"/>
    <path class="st3" d="M154.2,165.2c0-1-.2-1.6-.2-1.7,0,0,0,0,0,0,0-.1,0-.2,0-.3,0,0-1-2.9-1-3,0-.1-.1-.3-.2-.4,0-.1,0-.2-.1-.3,0-.2-.2-.3-.2-.5,0-.1-.9-1.6-2.8-2.4-.8-.3-1.5-.5-2.1-.5-.9,0-1.5.2-1.6.2,0,0-2.9.8-2.9.8-1.9.7-2.7.4-3.1,0-.7-.6-.2-2.1,0-3,.9-3.3,1.5-8.5,1.5-12.1,0-9.9-3.5-18.7-10.1-25.5-6.8-7-15.6-11.4-24.8-12.4,0,0-2.2-.3-5-.2-2.8,0-5.4.2-5.4.2-9.2,1-18,5.4-24.8,12.4-6.6,6.8-10.1,15.7-10.1,25.5s.7,8.9,1.5,12.1c.2.9.7,2.3,0,3-.5.4-1.3.8-3.1,0,0,0-2.6-1-2.6-1-.1,0-.7-.2-1.6-.2-.6,0-1.3.1-2.1.5-1.8.8-2.7,2.3-2.8,2.4,0,.1-.2.3-.2.5,0,.1-.1.2-.1.3,0,.1-.1.3-.2.4,0,.1-1,3-1,3,0,.1,0,.2,0,.3,0,0,0,0,0,0,0,0-.2.7-.2,1.7,0,0,0,0,0,0,0,0,0,.1,0,.2,0,.2,0,.3,0,.5,0,.3.1.7.3,1.1.6,1.7,1.9,2.6,1.9,2.7,0,0,0,0,0,0,.5.4,1.1.7,1.7.9l7,2.7,17,6.3,16.9,5.8c2.3.7,2.6-1.2,2.6-2.2v-13.1c0-1.5-1-2.8-2.3-3.2-.2,0-.3-.1-.5-.2-.1,0-.3,0-.4-.1-1.4-.4-2.8-1-4.1-1.7-8.2-4.3-13.8-13.2-13.8-23.1,0-14.1,12.4-25.1,26.5-25.3,14.1.2,26.3,11.2,26.3,25.3s-5.6,18.8-13.8,23.1c-1.3.7-2.7,1.3-4.1,1.7-.1,0-.3,0-.4.1-.2,0-.3.1-.5.2-1.4.3-2.3,1.7-2.3,3.2v13.1c0,1,.2,3,2.6,2.2l16.9-5.8,17-6.3,7.2-2.4c.6-.2,1.2-.5,1.7-.9,0,0,0,0,0,0,0,0,1.3-1,1.9-2.7.1-.4.2-.8.3-1.1,0-.2,0-.3,0-.5,0,0,0-.1,0-.2s0,0,0,0"/>
    <path class="st0" d="M131,244.8c-.5,1.9-1.7,2.9-1.8,3s-.2.2-.3.3c0,0-2.4,1.9-2.5,2-.1,0-.2.2-.4.3-.1,0-.2.1-.3.2-.1,0-.3.2-.5.3-.1,0-1.7.8-3.6.5-2.2-.4-3.1-1.6-3.2-1.7l-12.1-16.2c-1.6-2.3-3.3-3.4-5-3.4-1.7,0-3.3,1.1-5,3.4l-12.1,16.2c-.1.1-1,1.3-3.2,1.7-2,.3-3.5-.4-3.6-.5-.2,0-.3-.2-.5-.3-.1,0-.2-.1-.3-.2-.1,0-.2-.2-.4-.3-.1,0-2.5-2-2.5-2,0,0-.2-.2-.3-.3,0,0-1.3-1.1-1.8-3-.4-1.7.1-3.2.1-3.3,0,0,0,0,0-.1.2-.6.5-1.2.9-1.7l16.6-22.3,6.7-8.9c.8-1,1.8-1.7,2.9-2.1,0,0,.1,0,.2,0,0,0,.1,0,.2,0,1.4-.4,2.7-.4,4,0,0,0,0,0,0,0h0c1.2.4,2.2,1.1,3,2.3l6.7,8.9,16.6,22.3c.4.5.7,1.1.9,1.7,0,0,0,0,0,.1,0,0,.5,1.6.1,3.3"/>
    <path class="st2" d="M158.4,179.5c1.7,1,2.3,2.5,2.4,2.6,0,.1.1.2.2.3,0,0,1.2,2.8,1.2,3,0,.1,0,.3.1.4,0,.1,0,.2,0,.3,0,.2,0,.3.1.5,0,.2.3,1.8-.6,3.6-1,2-2.4,2.5-2.6,2.6l-4.2,1.6-5.3,1.9-9.5,3.5c-2.7.9-4.2,2.2-4.7,3.8-.5,1.6.1,3.5,1.9,5.7l6.1,8.1,3.4,4.5,2.7,3.6c0,.2,1,1.3.8,3.6-.2,2-1.4,3.2-1.5,3.3-.1.1-.3.2-.4.4,0,0-.2.2-.3.2-.1,0-.2.2-.3.3-.1,0-2.6,1.8-2.6,1.8-.1,0-.2.1-.3.2-.1,0-1.4,1-3.4.9-1.8,0-3.1-1-3.1-1.1,0,0,0,0,0,0-.5-.4-1-.8-1.3-1.4l-16.6-22.3-6.7-9c-.8-1-1.1-2.2-1.2-3.4,0,0,0-.1,0-.2v-.2c0-1.4.4-2.7,1.1-3.8,0,0,0,0,0,0h0c.7-1,1.7-1.8,3-2.3l36.5-13.5c.6-.2,1.2-.4,1.9-.4,0,0,0,0,.1,0,0,0,1.7,0,3.2.8"/>
    <path class="st1" d="M44.4,179.5c-1.7,1-2.3,2.5-2.4,2.6,0,.1-.1.2-.2.3,0,0-1.2,2.8-1.2,3,0,.1,0,.3-.1.4,0,.1,0,.2,0,.3,0,.2,0,.3-.1.5,0,.2-.3,1.8.6,3.6,1,2,2.4,2.5,2.6,2.6l4.2,1.6,5.3,1.9,9.5,3.5c2.7.9,4.2,2.2,4.7,3.8.5,1.6-.1,3.5-1.9,5.7l-6.1,8.1-3.4,4.5-2.7,3.6c0,.2-1,1.3-.8,3.6.2,2,1.4,3.2,1.5,3.3.1.1.3.2.4.4,0,0,.2.2.3.2.1,0,.2.2.3.3.1,0,2.6,1.8,2.6,1.8.1,0,.2.1.3.2.1,0,1.4,1,3.4.9,1.8,0,3.1-1,3.1-1.1,0,0,0,0,0,0,.5-.4,1-.8,1.3-1.4l16.6-22.3,6.7-9c.8-1,1.1-2.2,1.2-3.4,0,0,0-.1,0-.2v-.2c0-1.4-.4-2.7-1.1-3.8,0,0,0,0,0,0h0c-.7-1-1.7-1.8-3-2.3l-36.5-13.5c-.6-.2-1.2-.4-1.9-.4,0,0,0,0-.1,0,0,0-1.7,0-3.2.8"/>
    <path class="st1" d="M591.5,220.3c-4.2.5-7.4,3.1-9,7.2h-.1v-7h-3.3v29.8h3.6v-15.9c0-5.8,3.9-10.2,9.6-10.6h.6l-1.4-3.5Z"/>
  </g>
</svg>
